<svg xmlns="http://www.w3.org/2000/svg" xmlns:xlink="http://www.w3.org/1999/xlink" viewBox="0 0 170 170"><defs><style>.cls-1{fill:none;}.cls-2{isolation:isolate;}.cls-3{fill:#0a6e90;}.cls-4{clip-path:url(#clip-path);}.cls-5{fill:#f25a28;}.cls-6{fill:#f5fefb;}.cls-7{fill:#f6f3cf;}.cls-8{fill:#251f21;}.cls-9{fill:#e96332;}.cls-10{fill:#07171b;}.cls-11{fill:#a84720;}.cls-12{fill:#191009;}.cls-13{fill:#fff;}.cls-14{opacity:0.5;mix-blend-mode:screen;}.cls-15{clip-path:url(#clip-path-2);}.cls-16{fill:#e6e6e6;}.cls-17{clip-path:url(#clip-path-3);}.cls-18{clip-path:url(#clip-path-4);}.cls-19{clip-path:url(#clip-path-5);}.cls-20{fill:#351905;}</style><clipPath id="clip-path"><circle class="cls-1" cx="85" cy="85" r="85"/></clipPath><clipPath id="clip-path-2"><rect class="cls-1" x="57.24" y="84.34" width="11.04" height="27.81"/></clipPath><clipPath id="clip-path-3"><rect class="cls-1" x="97.06" y="82.34" width="11.4" height="29.41"/></clipPath><clipPath id="clip-path-4"><rect class="cls-1" x="52.74" y="86.07" width="9.38" height="25.46"/></clipPath><clipPath id="clip-path-5"><rect class="cls-1" x="90.75" y="82.81" width="10.91" height="26.94"/></clipPath></defs><title>Asset 2</title><g class="cls-2"><g id="Layer_2" data-name="Layer 2"><g id="Objects"><g id="avatar_animals" data-name="avatar animals"><circle class="cls-3" cx="85" cy="85" r="85"/><g class="cls-4"><path class="cls-5" d="M87.86,116.45c-21.92,0-39.69,24-39.69,53.56h79.39C127.56,140.42,109.78,116.45,87.86,116.45Z"/><path class="cls-6" d="M77.28,131.75c3.16,6.58,12.71,13.91,20.72,0-.49-6-6.37-7.51-10.14-7.51C80.57,124.24,77.28,131.75,77.28,131.75Z"/><path class="cls-7" d="M136.6,112.13a11.52,11.52,0,0,0-2.28-1.23l.68.4A13.38,13.38,0,0,1,136.6,112.13Z"/><path class="cls-7" d="M136.6,112.13a13.38,13.38,0,0,0-1.6-.82A16.41,16.41,0,0,0,136.6,112.13Z"/><path class="cls-7" d="M41.33,110.9a11.55,11.55,0,0,0-2.28,1.23,13.34,13.34,0,0,1,1.6-.82Z"/><path class="cls-7" d="M39.05,112.13a16.59,16.59,0,0,0,1.6-.82A13.34,13.34,0,0,0,39.05,112.13Z"/><path class="cls-8" d="M102.41,67.88c7.53-30.52,32.35-41.21,32.35-41.21S152.51,73,118.59,84Z"/><path class="cls-5" d="M106,70.69c9.7-29,25.22-34.05,25.22-34.05s13.42,27.69-16.06,44.58Z"/><path class="cls-8" d="M73.21,67.88C65.68,37.36,40.85,26.67,40.85,26.67S23.11,73,57,84Z"/><path class="cls-5" d="M69.58,70.69c-9.7-29-25.23-34.05-25.23-34.05S30.94,64.33,60.42,81.21Z"/><path class="cls-6" d="M98,131.75a11,11,0,0,0-4.9-5.48c1.81-2.94,7.87-10.75,21.48-15.29,10.05-3.35,18.69-1.24,22,1.16C136.58,112.13,126.43,125.08,98,131.75Z"/><path class="cls-6" d="M77.62,131.75a11,11,0,0,1,4.9-5.48C80.71,123.33,74.66,115.51,61,111c-10.06-3.35-18.69-1.24-22,1.16C39,112.13,49.19,125.08,77.62,131.75Z"/><path class="cls-5" d="M125,98.76c0-.48.07-.95.07-1.44A37.35,37.35,0,0,0,87.84,60h-.07A37.35,37.35,0,0,0,50.5,97.33c0,.49.05,1,.07,1.44-1.73,7-7.2,11-9.94,12.55C44.89,109.45,52,108.64,61,111c10.46,2.71,19.67,11.47,21.48,15.29a10.54,10.54,0,0,1,10.57,0c1.81-3.82,11-12.58,21.48-15.29,9-2.34,16.15-1.52,20.41.33C132.25,109.74,126.78,105.81,125,98.76Z"/><path class="cls-5" d="M135,111.31a16.62,16.62,0,0,0,1.6.82A13.18,13.18,0,0,0,135,111.31Z"/><path class="cls-5" d="M40.63,111.31a13.33,13.33,0,0,0-1.6.82A16.41,16.41,0,0,0,40.63,111.31Z"/><path class="cls-1" d="M61.06,111a50.06,50.06,0,0,1,9.24,4.13l0-.14A35.89,35.89,0,0,0,61.06,111Z"/><path class="cls-9" d="M87.79,60h0Z"/><path class="cls-10" d="M82.53,126.24h0l0,0Z"/><path class="cls-11" d="M87.86,60h0Z"/><path class="cls-11" d="M87.86,92.6V60h-.07V92.61Z"/><path class="cls-11" d="M87.79,124.85h.07V92.6h-.07v32.24Z"/><path class="cls-11" d="M82.53,126.24v0a11,11,0,0,1,5.25-1.42h0A10.91,10.91,0,0,0,82.53,126.24Z"/><path class="cls-11" d="M87.79,124.85h0Z"/><path class="cls-12" d="M90.82,118.91c3.71,0,4.87,2.39,2.58,5.31l-1.46,1.87a5.05,5.05,0,0,1-8.33,0l-1.47-1.87c-2.29-2.92-1.13-5.31,2.58-5.31Z"/><path class="cls-12" d="M76.4,131.15s6.43,2,11.23-2.88c4.22,3.36,6.91,4.34,11.51,1.64-4.7,5.17-10,3.56-11.65,3.18C83.85,134.05,77.36,133.84,76.4,131.15Z"/><path class="cls-13" d="M66.35,91.75s12.4-3.59,12.12,9c0,0-12.12,4.4-12.12-9"/><circle class="cls-12" cx="73.2" cy="95.66" r="3.01"/><circle class="cls-13" cx="74.5" cy="94.52" r="0.7"/><path class="cls-13" d="M108.93,91.75s-12.4-3.59-12.12,9c0,0,12.12,4.4,12.12-9"/><circle class="cls-12" cx="101.8" cy="95.66" r="3.01"/><circle class="cls-13" cx="100.39" cy="94.25" r="0.71"/><path d="M102.57,138.49c-2.06-.69-12.36,5.23-12.36,5.23a3.51,3.51,0,0,0-5.1,0s-10.31-6.24-12.27-5.09-2,13.36,0,14.56,12.47-4.9,12.47-4.9a3.52,3.52,0,0,0,4.71,0s10.78,6.33,12.47,4.9S104.63,139.17,102.57,138.49Z"/><g class="cls-14"><g class="cls-15"><polygon class="cls-16" points="57.24 85.44 65 112.01 68.28 112.15 59.9 84.34 57.24 85.44"/></g></g><g class="cls-14"><g class="cls-17"><polygon class="cls-16" points="97.06 82.61 105.36 111.57 108.46 111.75 100.08 82.34 97.06 82.61"/></g></g><g class="cls-14"><g class="cls-18"><path class="cls-16" d="M54.44,86.07h0c.06,1.21-.8,2.07-1.37,3.19a1.49,1.49,0,0,1-.33.43v1.46l5.07,18.21c1.08.5,1.16.9,2.26,1.38.67.29,1.36.54,2,.8Z"/></g></g><g class="cls-14"><g class="cls-19"><polygon class="cls-16" points="90.75 83.81 98.66 108.16 101.66 109.75 93.87 82.81 90.75 83.81"/></g></g><path class="cls-20" d="M125.35,93.08c-.26-.33-.7-.26-.92-1.07s-2.28-6.29-4.56-7.54-6.64-3.38-17.23-4.12c-8.19-.2-13.15-.37-14.56-.43v0h-.42v0c-1.41.05-6.37.22-14.56.43-10.59.74-15,2.87-17.24,4.12S51.52,91.21,51.3,92s-.66.74-.92,1.07,0,2.28.84,3.53a23.8,23.8,0,0,0,5.66,13.16c1.84,2.13,6.92,3.16,10.45,3,7.8-1.32,9.12-3.68,12.5-7s6.06-12.36,6.45-13.39a1.66,1.66,0,0,1,3.15,0c.39,1,3.07,10.08,6.45,13.39s4.71,5.66,12.51,7c3.53.15,8.61-.88,10.45-3a23.82,23.82,0,0,0,5.66-13.16c.81-1.25,1.1-3.2.84-3.53M83.74,94.41c-.59,2.65-2.65,8-5,10.59s-3.89,4.89-9.83,6.18c-3.41.44-8.48.07-10.84-2.72S53.36,101.23,53.36,97a36.32,36.32,0,0,1,.29-5.76s1.4-4.78,5.07-6.33a37.1,37.1,0,0,1,16-2.13c6.4.44,8.53,1.47,9,2.87s.59,6.11,0,8.75m33.93,14c-2.35,2.79-7.43,3.16-10.84,2.72-5.94-1.29-7.48-3.6-9.83-6.18s-4.41-7.94-5-10.59-.51-7.35,0-8.75,2.65-2.43,9-2.87a37.1,37.1,0,0,1,16,2.13c3.68,1.54,5.07,6.33,5.07,6.33a35.9,35.9,0,0,1,.3,5.76c0,4.22-2.35,8.65-4.71,11.45"/></g></g></g></g></g></svg>