<svg xmlns="http://www.w3.org/2000/svg" xmlns:xlink="http://www.w3.org/1999/xlink" viewBox="0 0 170 170"><defs><style>.cls-1{fill:none;}.cls-2{fill:#f9b44d;}.cls-3{clip-path:url(#clip-path);}.cls-4{fill:#191009;}.cls-5{fill:#f5f5f5;}.cls-6{fill:#434345;}.cls-7{fill:#a5541c;}.cls-8{fill:#fefefe;}.cls-9{fill:#fff;}.cls-10{fill:#883e10;}</style><clipPath id="clip-path"><circle class="cls-1" cx="85" cy="85" r="85"/></clipPath></defs><title>Asset 3</title><g id="Layer_2" data-name="Layer 2"><g id="Objects"><g id="avatar_animals" data-name="avatar animals"><circle class="cls-2" cx="85" cy="85" r="85"/><g class="cls-3"><path class="cls-4" d="M78.27,111.9c-24.94,0-45.17,26-45.17,58.1h90.34c0-22.06-9.56-41.25-23.64-51.09A37.36,37.36,0,0,0,78.27,111.9Z"/><polyline class="cls-5" points="57.56 115.64 78.27 170 100.53 116.83"/><polygon class="cls-6" points="58.4 116.83 78.27 170 99.67 118.83 112.96 122.28 100.85 137.96 107.93 140.95 78.27 170 55.86 147.79 61.41 140.95 47.77 124.21 58.4 116.83"/><path class="cls-7" d="M91.09,51.23H61.34c-4.51,0-15.1,6.54-15.1,16.68s1.8,24.12,9,33.36-2.7,23,21,23,13.75-13.75,21-23,9-23.22,9-33.36S95.6,51.23,91.09,51.23Z"/><path class="cls-8" d="M73.77,55.12s-.3,21.64-6.31,31-18.33,33.06-6.91,36.37,12.62-8.72,16.53-8.72,6.24,10.15,18,7.82c9.84-2,3.48-20.8-6.88-35-9.37-12.89-8.15-31.38-8.15-31.38Z"/><path d="M105.5,68.6a.34.34,0,0,0-.27-.34l-.37-.09c-1.78-.28-3.57-.55-5.37-.68-1.44-.1-2.88-.16-4.33-.23a48.73,48.73,0,0,0-8.31.29,27.23,27.23,0,0,0-5,1c-.82.27-1.63.58-2.45.84a8,8,0,0,1-3.93.34,19.33,19.33,0,0,1-2.36-.63A33.61,33.61,0,0,0,68.87,68a43.86,43.86,0,0,0-8.34-.73,51,51,0,0,0-6.05.31c-1.59.19-3.18.4-4.77.62a8.37,8.37,0,0,0-1,.23.36.36,0,0,0-.3.36c0,.94-.07,1.88-.09,2.81a2.52,2.52,0,0,0,.05.42.31.31,0,0,0,.2.25,2,2,0,0,1,.35.18,2.81,2.81,0,0,1,1,1.48c.14.41.24.83.35,1.25.07.26.17.51.23.77.27,1.22.53,2.45.81,3.68A14.09,14.09,0,0,0,52.47,83a5.44,5.44,0,0,0,2.77,2.63,10.37,10.37,0,0,0,2.37.65,19.19,19.19,0,0,0,4.4.15,20,20,0,0,0,4.39-.77,8,8,0,0,0,2.92-1.5,13.42,13.42,0,0,0,3.16-3.94,26.86,26.86,0,0,0,1.88-4.75c.15-.47.28-.94.45-1.4a1.76,1.76,0,0,1,1.46-1.2,3.29,3.29,0,0,1,.7,0,1.82,1.82,0,0,1,1.42.6,3.13,3.13,0,0,1,.41.64,13.68,13.68,0,0,1,.53,1.37,28.19,28.19,0,0,0,2.55,5.75,9.31,9.31,0,0,0,3.6,3.58A12,12,0,0,0,89,86a23.58,23.58,0,0,0,5.55.36,13.52,13.52,0,0,0,3.32-.52,5.39,5.39,0,0,0,2.82-1.8,8,8,0,0,0,1.11-2,28.72,28.72,0,0,0,1.35-4.57q.26-1.14.54-2.28c.1-.4.22-.79.33-1.18a3.13,3.13,0,0,1,.42-1.06,1.9,1.9,0,0,1,.86-.77.44.44,0,0,0,.29-.34,1.74,1.74,0,0,0,.06-.38c0-.56,0-1.12,0-1.68,0-.4-.06-.8-.08-1.21M50.72,70.37c-.61,0-1.1-.12-1.1-.27s.49-.27,1.1-.27,1.1.12,1.1.27-.49.27-1.1.27M71.93,76.3a16.65,16.65,0,0,1-1.87,4.62,9.67,9.67,0,0,1-1.66,2.17,6.91,6.91,0,0,1-3.1,1.64,17.68,17.68,0,0,1-7.15.41c-.47-.07-.94-.2-1.4-.31a3.74,3.74,0,0,1-2.24-1.62,8.94,8.94,0,0,1-1.24-3,31.18,31.18,0,0,1-.65-4.18,10.93,10.93,0,0,1,0-2.44c.05-.41.08-.82.17-1.22a3.4,3.4,0,0,1,2.62-2.7A22.87,22.87,0,0,1,59.4,69c1-.08,2-.12,2.61-.16a27.83,27.83,0,0,1,6,.61,8.81,8.81,0,0,1,2.24.71,5.88,5.88,0,0,1,1,.65,2.51,2.51,0,0,1,.85,1.6,9.68,9.68,0,0,1-.2,3.86m29.35-.61a17.36,17.36,0,0,1-1.09,5.76,5.38,5.38,0,0,1-1.25,2,5.11,5.11,0,0,1-2.31,1.2,12.91,12.91,0,0,1-3.29.37,22.83,22.83,0,0,1-5-.54A6.71,6.71,0,0,1,84.42,82a13.7,13.7,0,0,1-2.64-5.57,11.52,11.52,0,0,1-.38-2.88,8,8,0,0,1,.13-1.26,2.7,2.7,0,0,1,1.78-2.1,16.43,16.43,0,0,1,3-.82,25.85,25.85,0,0,1,3.41-.46c.9-.06,1.79-.08,2.4-.11a28.66,28.66,0,0,1,6.54.88,7.19,7.19,0,0,1,1.09.44,1.61,1.61,0,0,1,.76.75c.18.37.37.74.52,1.12a4.38,4.38,0,0,1,.23,1.41c0,.76.07,1.52,0,2.27m1.89-5.32c-.61,0-1.1-.12-1.1-.27s.49-.27,1.1-.27,1.09.12,1.09.27-.49.27-1.09.27"/><path class="cls-9" d="M98.36,72.17s-10.51-3-10.27,7.64c0,0,10.27,3.73,10.27-7.64"/><circle class="cls-4" cx="92.32" cy="75.49" r="2.55"/><circle class="cls-9" cx="91.73" cy="75.25" r="0.6"/><path class="cls-9" d="M57.51,72.17s10.51-3,10.27,7.64c0,0-10.27,3.73-10.27-7.64"/><circle class="cls-4" cx="63.55" cy="75.49" r="2.55"/><circle class="cls-9" cx="64.15" cy="75.25" r="0.6"/><path class="cls-10" d="M57.71,52.34S29.57,61,31,84s7.09,34.74,14.8,34.86,11.51-6.66,9.48-27.46A130.09,130.09,0,0,1,57.71,52.34Z"/><path class="cls-10" d="M95.28,52.34S123.42,61,122,84s-7.09,34.74-14.81,34.86-8.24-6.87-6.2-27.67S95.28,52.34,95.28,52.34Z"/><path class="cls-4" d="M80.79,104.84c3.47,0,4.56,2.24,2.42,5l-1.37,1.75a4.74,4.74,0,0,1-7.8,0l-1.37-1.75c-2.15-2.73-1.06-5,2.42-5Z"/><path class="cls-4" d="M77.94,113.66s-5.25-.67-6.84,3.08-5.6,7.74-8.06,6.33c-3.54-2-2-6.33,1.3-7.34-2.3-2.3-8.64,3.48-3.81,8,5.05,4.77,15-.27,17.41-5.52Z"/><path class="cls-4" d="M77.94,113.66s5.25-.67,6.84,3.08,5.6,7.74,8.06,6.33c3.54-2,2-6.33-1.29-7.34,2.3-2.3,8.64,3.48,3.81,8-5.05,4.77-15-.27-17.42-5.52Z"/><path d="M107.83,45.74c-1.18-13.12-14-5-14-5V28.59c0-13-14.35-5.68-15.84-5.68s-15.84-7.33-15.84,5.68V40.77s-12.77-8.16-14,5S60.18,59,60.18,59H95.88S109,58.86,107.83,45.74Z"/><path class="cls-9" d="M93.87,40.77S92.27,45.65,78,45.65s-15.84-4.88-15.84-4.88-3.18,3.61-1.07,7c2.6,4.14,9.65,5.32,16.91,5.32s14.31-1.18,16.91-5.32C97.05,44.38,93.87,40.77,93.87,40.77Z"/></g></g></g></g></svg>