<svg xmlns="http://www.w3.org/2000/svg" xmlns:xlink="http://www.w3.org/1999/xlink" viewBox="0 0 219.13 170"><defs><style>.cls-1{fill:none;}.cls-2{fill:#8dd0c7;}.cls-3{clip-path:url(#clip-path);}.cls-4{fill:#d39c5b;}.cls-5{fill:#e2c59b;}.cls-6{fill:#be7447;}.cls-7{fill:#191009;}.cls-8{fill:#fff;}</style><clipPath id="clip-path"><circle class="cls-1" cx="105.46" cy="85" r="85"/></clipPath></defs><title>Asset 5</title><g id="Layer_2" data-name="Layer 2"><g id="Objects"><g id="avatar_animals" data-name="avatar animals"><circle class="cls-2" cx="105.46" cy="85" r="85"/><g class="cls-3"><path class="cls-4" d="M144.65,170c.41-2.83.63-15.69.63-18.68,0-25.86-16-46.83-35.78-46.83s-35.78,21-35.78,46.83c0,3,.22,15.84.63,18.68Z"/><path class="cls-5" d="M92.73,116.68S82.53,140.07,88.66,149s20.58,21,20.58,21,22.7-15.14,23-26.66-6.54-30.1-6.54-30.1"/><path class="cls-6" d="M87.6,113.41c7.22,5.5,7.4,8.77,8.37,17.89C98.15,148.5,105.49,148,109.5,148V115.48S91.38,101,82.67,95.54C81.7,99.55,80.38,107.91,87.6,113.41Z"/><path class="cls-6" d="M136.33,95.54c-8.71,5.48-26.83,19.93-26.83,19.93V148c4,0,11.35.52,13.53-16.68,1-9.12,1.15-12.39,8.37-17.89S137.31,99.55,136.33,95.54Z"/><path class="cls-6" d="M129.68,70.68S142.71,59,158.63,66c-3.86,8.61-11,15.86-25,16.59"/><path class="cls-7" d="M130.77,74.6s13.53-8,21.71-4.36c-2,4.43-12.2,11.06-19.42,11.44"/><path class="cls-6" d="M88.74,69.93s-13-11.72-28.94-4.72c3.86,8.61,11,15.86,25,16.59"/><path class="cls-7" d="M87.65,73.85s-13.53-8-21.71-4.36c2,4.43,12.2,11.06,19.42,11.44"/><path class="cls-4" d="M133.81,68.29l-7.34-3.67-17,6.88-17-6.88-7.34,3.67s.46,18.58-2.75,28C90,98.56,98.26,113,102.62,127.92h13.76C120.74,113,129,98.56,136.56,96.27,133.35,86.87,133.81,68.29,133.81,68.29Z"/><path class="cls-7" d="M112.74,126c3.94,0,5.18,2.54,2.74,5.64l-1.56,2a5.37,5.37,0,0,1-8.85,0l-1.56-2c-2.44-3.1-1.2-5.64,2.74-5.64Z"/><path class="cls-8" d="M135.48,100.06s-11.92-3.46-11.65,8.67c0,0,11.65,4.23,11.65-8.67"/><circle class="cls-7" cx="128.63" cy="103.82" r="2.89"/><circle class="cls-8" cx="127.95" cy="103.55" r="0.68"/><path class="cls-8" d="M83.53,100.06s11.92-3.46,11.65,8.67c0,0-11.65,4.23-11.65-8.67"/><circle class="cls-7" cx="90.38" cy="103.82" r="2.89"/><circle class="cls-8" cx="91.05" cy="103.55" r="0.68"/><path d="M124.44,150.52c-2.07-.69-12.36,5.23-12.36,5.23a3.52,3.52,0,0,0-5.1,0s-10.31-6.24-12.27-5.09-2,13.36,0,14.56,12.47-4.9,12.47-4.9a3.52,3.52,0,0,0,4.72,0s10.78,6.33,12.47,4.9S126.5,151.21,124.44,150.52Z"/><path class="cls-7" d="M109.5,136s-4.52-.57-5.88,2.65-4.82,6.66-6.94,5.45c-3-1.74-1.74-5.45,1.12-6.32-2-2-7.44,3-3.28,6.92,4.35,4.11,12.88-.23,15-4.75Z"/><path class="cls-7" d="M109.5,136s4.52-.57,5.89,2.65,4.82,6.66,6.94,5.45c3-1.74,1.74-5.45-1.12-6.32,2-2,7.44,3,3.28,6.92-4.35,4.11-12.89-.23-15-4.75Z"/><path d="M90.93,93.48a13,13,0,1,0,13,13A13,13,0,0,0,90.93,93.48Zm0,23.85a10.83,10.83,0,1,1,10.83-10.83A10.83,10.83,0,0,1,90.93,117.33Z"/><rect x="73.53" y="105.2" width="6.37" height="2.6"/><rect x="73.53" y="106.5" width="2.4" height="51.94"/></g><path class="cls-4" d="M133.27,70.28s3.94-13.88,10.26-16,14.53-2.09,28-.75,32.2-4.51,42.66-21.24,1.39-10.83-1.33-6.13-15.69,18.34-26.32,20.6-21.81.73-23-3.62,13.42-23.62,20-27.56,8.08-11.22-1-3.88-17.88,16.88-27.12,33.09c-3.81,1.83-12.75,4.29-16.37,2s.94-24,8.4-31.53,14.23-11.66,20.81-11S173.78-1,165.26.87s-27.41,1.4-33.17,32c-1.51,8,.82,20.16.82,20.16L126,65.62Z"/><path class="cls-4" d="M85.86,70.4s-3.94-13.88-10.26-16-14.53-2.09-28-.75S15.37,49.17,4.91,32.44,3.52,21.61,6.25,26.31,21.94,44.65,32.57,46.9s21.81.73,23-3.62S42.13,19.66,35.49,15.72s-8.08-11.22,1-3.88S54.39,28.72,63.64,44.93c3.81,1.83,12.75,4.29,16.37,2s-.94-24-8.4-31.53S57.37,3.71,50.8,4.42,45.35-.87,53.86,1,81.28,2.39,87,33c1.51,8-.82,20.16-.82,20.16l6.9,12.56Z"/></g></g></g></svg>