<svg xmlns="http://www.w3.org/2000/svg" xmlns:xlink="http://www.w3.org/1999/xlink" viewBox="0 0 170 170"><defs><style>.cls-1{fill:none;}.cls-2{fill:#6980a2;}.cls-3{clip-path:url(#clip-path);}.cls-4{fill:#ed521a;}.cls-5{fill:#982508;}.cls-6{fill:#191009;}.cls-7{fill:#fff;}</style><clipPath id="clip-path"><circle class="cls-1" cx="85" cy="85" r="85"/></clipPath></defs><title>Asset 6</title><g id="Layer_2" data-name="Layer 2"><g id="Objects"><g id="avatar_animals" data-name="avatar animals"><circle class="cls-2" cx="85" cy="85" r="85"/><g class="cls-3"><path class="cls-4" d="M97.82,56.76c4-11.23,21.21-15.48,21.21-15.48s7.3,21.36-.57,30.95"/><path class="cls-5" d="M115.47,47.88S107.18,49.7,103,57.07,116,67.2,116,67.2s4-11.23-.56-19.32"/><path class="cls-4" d="M69.41,58.25c-4.63-11-22-14.29-22-14.29s-6.12,21.72,2.26,30.87"/><path class="cls-5" d="M51.29,50.35s8.37,1.36,12.93,8.49S51.8,69.68,51.8,69.68s-4.62-11-.51-19.32"/><path class="cls-4" d="M84.27,119.4c-26,0-47.09,22.66-47.09,50.6h94.19C131.37,142.05,110.28,119.4,84.27,119.4Z"/><path class="cls-4" d="M45,87.94a40.31,40.31,0,0,0,80.62,0c0-22.26-17.13-32.82-39.4-32.82S45,65.68,45,87.94Z"/><path d="M100.77,128.31c-2.07-.69-12.36,5.23-12.36,5.23a3.52,3.52,0,0,0-5.1,0S73,127.3,71,128.45,69,141.81,71,143s12.47-4.9,12.47-4.9a3.52,3.52,0,0,0,4.71,0S99,144.44,100.68,143,102.84,129,100.77,128.31Z"/><circle class="cls-6" cx="85.42" cy="147.25" r="2.38"/><path class="cls-7" d="M64.79,77.92s12.4-3.59,12.12,9c0,0-12.12,4.4-12.12-9"/><circle class="cls-6" cx="71.2" cy="82.54" r="3.01"/><circle class="cls-7" cx="72.61" cy="81.12" r="0.71"/><path class="cls-7" d="M107.36,77.92s-12.4-3.59-12.12,9c0,0,12.12,4.4,12.12-9"/><circle class="cls-6" cx="100.95" cy="82.54" r="3.01"/><circle class="cls-7" cx="99.54" cy="81.12" r="0.71"/><path class="cls-6" d="M101.7,102.57a.47.47,0,0,1-.19-.9c.85-.38,20.91-9.33,28.44-6.15a.47.47,0,0,1,.25.62.48.48,0,0,1-.62.25c-7.15-3-27.47,6-27.68,6.14A.46.46,0,0,1,101.7,102.57Z"/><path class="cls-6" d="M106.32,106a.47.47,0,0,1-.47-.43.47.47,0,0,1,.42-.51c2.44-.25,23.88-2.38,26.28-1.21a.47.47,0,1,1-.41.85c-1.64-.79-16.31.35-25.78,1.3Z"/><path class="cls-6" d="M126.49,114.81a.47.47,0,0,1-.35-.16c-2.28-2.55-13-3.49-16.93-3.63a.47.47,0,0,1-.46-.49.49.49,0,0,1,.49-.46c.59,0,14.59.58,17.6,3.95a.47.47,0,0,1,0,.67A.47.47,0,0,1,126.49,114.81Z"/><path class="cls-6" d="M69,102.57a.46.46,0,0,0,.43-.28.47.47,0,0,0-.23-.62c-.86-.38-20.91-9.33-28.44-6.15a.47.47,0,0,0-.25.62.47.47,0,0,0,.62.25c7.15-3,27.48,6,27.68,6.14A.44.44,0,0,0,69,102.57Z"/><path class="cls-6" d="M64.36,106a.48.48,0,0,0,.47-.43.47.47,0,0,0-.42-.51c-2.44-.25-23.88-2.38-26.28-1.21a.47.47,0,0,0-.22.63.47.47,0,0,0,.63.22c1.64-.79,16.31.35,25.78,1.3Z"/><path class="cls-6" d="M44.19,114.81a.47.47,0,0,0,.35-.16c2.28-2.55,13-3.49,16.93-3.63a.47.47,0,0,0,.46-.49.49.49,0,0,0-.49-.46c-.6,0-14.59.58-17.6,3.95a.47.47,0,0,0,0,.67A.46.46,0,0,0,44.19,114.81Z"/><path class="cls-7" d="M97.3,98.3c-5.47,0-10.11,2.92-11.89,7a13.2,13.2,0,0,0-11-5.43c-7,0-12.67,4.77-12.67,10.66s5.67,10.66,12.67,10.66c5.47,0,10.11-2.92,11.89-7a13.2,13.2,0,0,0,11,5.43c7,0,12.67-4.77,12.67-10.66S104.29,98.3,97.3,98.3Z"/><path class="cls-6" d="M89.09,96c3.54,0,4.65,2.28,2.46,5.07l-1.4,1.79a4.83,4.83,0,0,1-8,0l-1.4-1.79C78.61,98.28,79.72,96,83.26,96Z"/><path class="cls-6" d="M119.81,75.91c0-.41-1.51-.82-1.51-.82a32.61,32.61,0,0,1-3.76-1.2,47.65,47.65,0,0,0-7.64-2.43,42,42,0,0,0-8.57-.16,22.87,22.87,0,0,0-5.72,1.31,17.81,17.81,0,0,0-2,1.27c-.37.29-.74.57-1.06.53a4.1,4.1,0,0,1-1.06-.53H82.35a4.12,4.12,0,0,1-1.06.53c-.33,0-.69-.24-1.06-.53a17.93,17.93,0,0,0-2-1.27,22.88,22.88,0,0,0-5.72-1.31,42,42,0,0,0-8.57.16,47.63,47.63,0,0,0-7.63,2.43,32.76,32.76,0,0,1-3.76,1.2s-1.47.41-1.51.82.33,3.8.33,3.8,1.55.41,2.45.74,1.31.9,2,2.16a58.49,58.49,0,0,0,3.59,7.72c1.14,1.67,3.71,2.73,7.06,3.51,6.17.49,8.37-.9,10.37-2s3.19-3.59,3.88-4.82a43.55,43.55,0,0,0,2-6.49,1.66,1.66,0,0,0-.41-1.16,2.35,2.35,0,0,1-.35-1.47c.08-.47.33-1,1.35-1.33a9.71,9.71,0,0,1,2.19-.36,9.69,9.69,0,0,1,2.19.36c1,.35,1.26.86,1.35,1.33a2.35,2.35,0,0,1-.35,1.47,1.66,1.66,0,0,0-.41,1.16,43.82,43.82,0,0,0,2,6.49c.69,1.22,1.88,3.76,3.88,4.82s4.2,2.45,10.37,2c3.35-.78,5.92-1.84,7.06-3.51a59,59,0,0,0,3.59-7.72c.66-1.27,1.06-1.84,2-2.16s2.45-.74,2.45-.74.37-3.39.32-3.8M55.3,78.5c-.15,0-2.23-.72-2.23-.72v-.2s1.84-.63,2-.63a1.34,1.34,0,0,1,.86.7c.08.34-.48.84-.63.84m23.12,9.08c-1.5,2.2-2.75,4.32-8.94,4.59-2.45,0-5.7,0-8.08-2.24a12.81,12.81,0,0,1-2.85-5.3,20.82,20.82,0,0,1-.37-6.14,6.54,6.54,0,0,1,1.1-2.71,5.94,5.94,0,0,1,3.45-1.86,36.27,36.27,0,0,1,9.45-.55,19.24,19.24,0,0,1,4.28.91,6,6,0,0,1,3.4,4.47c.28,2.39.37,6-1.44,8.82m33.88-2.94a12.82,12.82,0,0,1-2.85,5.3c-2.39,2.21-5.63,2.24-8.08,2.24-6.19-.28-7.44-2.39-8.94-4.59-1.8-2.85-1.71-6.43-1.44-8.82a6,6,0,0,1,3.4-4.47,19.24,19.24,0,0,1,4.28-.91,36.27,36.27,0,0,1,9.45.55,5.92,5.92,0,0,1,3.45,1.86,6.52,6.52,0,0,1,1.11,2.71,20.84,20.84,0,0,1-.37,6.14m5.48-6.86s-2.08.72-2.23.72-.7-.51-.63-.84a1.34,1.34,0,0,1,.86-.7c.17,0,2,.63,2,.63Z"/></g></g></g></g></svg>