<svg xmlns="http://www.w3.org/2000/svg" xmlns:xlink="http://www.w3.org/1999/xlink" viewBox="0 0 170 173.98"><defs><style>.cls-1{fill:none;}.cls-2{fill:#dd5877;}.cls-3{clip-path:url(#clip-path);}.cls-4{fill:#f7eada;}.cls-5{fill:#a7654f;}.cls-6{fill:#fff;}.cls-7{fill:#191009;}.cls-8{fill:#26232c;}</style><clipPath id="clip-path"><circle class="cls-1" cx="85" cy="85" r="85"/></clipPath></defs><title>Asset 7</title><g id="Layer_2" data-name="Layer 2"><g id="Objects"><g id="avatar_animals" data-name="avatar animals"><circle class="cls-2" cx="85" cy="85" r="85"/><g class="cls-3"><ellipse class="cls-4" cx="83.56" cy="114.03" rx="47.09" ry="59.95"/><path class="cls-5" d="M114,72.56c0-15.94-26-18.73-26-18.73H79.09s-26,2.8-26,18.73-.28,35,7.55,48.93S67.34,155,83.56,156.16c16.22-1.12,15.1-20.69,22.93-34.67S114,88.5,114,72.56Z"/><path class="cls-6" d="M102.61,44.83s21.87-5,20.19-21.76c7.27,14.82-3.63,26.28-12.86,33"/><path class="cls-6" d="M64.37,44.83s-21.87-5-20.19-21.76C36.9,37.89,47.81,49.36,57,56.07"/><path class="cls-5" d="M107.3,60.87s11-13.84,28.8-10.07c-2.24,9.09-8.11,17.48-22.37,20.83"/><path class="cls-4" d="M110.11,64.28s11.4-10.1,20.53-8.16c-1.15,4.68-10.32,13-17.66,14.78"/><path class="cls-5" d="M59.56,60.87S48.52,47,30.76,50.8C33,59.89,38.87,68.28,53.13,71.64"/><path class="cls-4" d="M56.74,64.28s-11.4-10.1-20.53-8.16c1.15,4.68,10.32,13,17.66,14.78"/><path class="cls-6" d="M91.95,109.89c0-14,.42-27.26,12.16-38.8s8.25-20.34,1.4-26.42-16.92-5-22-5-15.1-1-22,5S51.27,59.56,63,71.09s12.16,24.82,12.16,38.8c0,10.8-7,17.05-11.32,21.95S62,146.38,67,146.38h33.13c5,0,7.48-9.64,3.14-14.54S91.95,120.69,91.95,109.89Z"/><path class="cls-6" d="M110.29,81.78s-12.37-3.59-12.09,9c0,0,12.09,4.39,12.09-9"/><circle class="cls-7" cx="103.18" cy="85.68" r="3"/><circle class="cls-6" cx="102.48" cy="85.4" r="0.7"/><path class="cls-6" d="M56.38,81.78s12.37-3.59,12.09,9c0,0-12.09,4.39-12.09-9"/><circle class="cls-7" cx="63.49" cy="85.68" r="3"/><circle class="cls-6" cx="64.19" cy="85.4" r="0.7"/><path class="cls-8" d="M83,146.13s-5.5-2.62-10.74,0-10.09,7.21-13.11.92c0,0-.13,9.83,11.93,8.65S83.52,147.7,83,146.13Z"/><path class="cls-8" d="M83.27,146.13s5.5-2.62,10.74,0,10.09,7.21,13.11.92c0,0,.13,9.83-11.93,8.65S82.75,147.7,83.27,146.13Z"/></g></g></g></g></svg>