<svg xmlns="http://www.w3.org/2000/svg" xmlns:xlink="http://www.w3.org/1999/xlink" viewBox="0 0 170 170"><defs><style>.cls-1{fill:none;}.cls-2{fill:#f3724b;}.cls-3{clip-path:url(#clip-path);}.cls-4{fill:#fbbdb0;}.cls-5{fill:#d76c79;}.cls-6{fill:#fff;}.cls-7{fill:#191009;}.cls-8{fill:#3c3c3b;}.cls-9{fill:#26232c;}</style><clipPath id="clip-path"><circle class="cls-1" cx="85" cy="85" r="85"/></clipPath></defs><title>Asset 8</title><g id="Layer_2" data-name="Layer 2"><g id="Objects"><g id="avatar_animals" data-name="avatar animals"><circle class="cls-2" cx="85" cy="85" r="85"/><g class="cls-3"><path class="cls-4" d="M83.43,109.24c-28.12,0-50.91,27.21-50.91,60.77H134.35C134.35,136.44,111.55,109.24,83.43,109.24Z"/><path class="cls-4" d="M9.29,51.44S37,38.88,46.16,53.16L58.38,72.23s-29.55,9.69-38.7-4.59Z"/><path class="cls-5" d="M18,55.13S35.88,47,41.79,56.24l7.89,12.31s-19.08,6.25-25-3Z"/><path class="cls-4" d="M160.71,54.07s-26.89-14.23-36.9-.54L110.44,71.82s28.9,11.48,38.91-2.22Z"/><path class="cls-5" d="M151.81,57.22S134.44,48,128,56.87l-8.63,11.81s18.66,7.41,25.12-1.43Z"/><path class="cls-4" d="M121.68,74.86A21.27,21.27,0,0,0,122,71.3C122,55.67,104.74,43,83.43,43S44.85,55.67,44.85,71.3a21,21,0,0,0,.33,3.55A27.69,27.69,0,0,0,38,93c0,18.63,20.35,33.73,45.45,33.73s45.45-15.1,45.45-33.73A27.68,27.68,0,0,0,121.68,74.86Z"/><path class="cls-6" d="M105.47,72.1s-11.34-3.29-11.08,8.24c0,0,11.08,4,11.08-8.24"/><circle class="cls-7" cx="98.96" cy="75.68" r="2.75"/><circle class="cls-6" cx="98.31" cy="75.42" r="0.64"/><path class="cls-6" d="M61.39,72.1s11.34-3.29,11.08,8.24c0,0-11.08,4-11.08-8.24"/><circle class="cls-7" cx="67.91" cy="75.68" r="2.75"/><circle class="cls-6" cx="68.55" cy="75.42" r="0.65"/><path class="cls-5" d="M83.43,108.53c-8.12,0-14.49-4.2-14.49-9.55s6.37-9.55,14.49-9.55S97.92,93.62,97.92,99,91.56,108.53,83.43,108.53Z"/><circle class="cls-8" cx="77.2" cy="98.39" r="2.73"/><circle class="cls-8" cx="89.1" cy="98.39" r="2.73"/><path class="cls-9" d="M83.3,105s-5.21-2.48-10.18,0-9.56,6.83-12.42.87c0,0-.12,9.31,11.3,8.19S83.8,106.53,83.3,105Z"/><path class="cls-9" d="M83.56,105s5.21-2.48,10.18,0,9.56,6.83,12.41.87c0,0,.12,9.31-11.3,8.19S83.06,106.53,83.56,105Z"/><path d="M98.36,123.52C96.3,122.84,86,128.76,86,128.76a3.51,3.51,0,0,0-5.1,0s-10.31-6.24-12.28-5.09-2,13.35,0,14.56,12.47-4.9,12.47-4.9a3.52,3.52,0,0,0,4.71,0s10.78,6.33,12.47,4.9S100.43,124.21,98.36,123.52Z"/><path d="M118.1,66.32a.41.41,0,0,0-.33-.42c-.15,0-.3-.08-.45-.11-2.17-.34-4.34-.67-6.53-.82-1.75-.12-3.5-.2-5.25-.28a59.32,59.32,0,0,0-10.1.35,33.12,33.12,0,0,0-6,1.27c-1,.32-2,.7-3,1a9.73,9.73,0,0,1-4.77.41A23.61,23.61,0,0,1,78.77,67a41,41,0,0,0-5.18-1.42,53.23,53.23,0,0,0-10.13-.89,61.67,61.67,0,0,0-7.35.38c-1.93.23-3.86.49-5.79.75a10.3,10.3,0,0,0-1.21.28.44.44,0,0,0-.36.44q-.06,1.71-.11,3.42a3.19,3.19,0,0,0,.07.52.37.37,0,0,0,.24.31,2.45,2.45,0,0,1,.43.22,3.39,3.39,0,0,1,1.18,1.8c.17.5.29,1,.43,1.52.09.31.21.62.28.94.33,1.49.64,3,1,4.47a17.06,17.06,0,0,0,1.43,4.1A6.62,6.62,0,0,0,57.05,87a12.61,12.61,0,0,0,2.88.79,23.3,23.3,0,0,0,5.34.19A24.46,24.46,0,0,0,70.61,87a9.7,9.7,0,0,0,3.55-1.82A16.32,16.32,0,0,0,78,80.42a32.88,32.88,0,0,0,2.28-5.77c.18-.57.35-1.14.55-1.7a2.14,2.14,0,0,1,1.77-1.46,4.06,4.06,0,0,1,.85,0,2.22,2.22,0,0,1,1.73.73,3.7,3.7,0,0,1,.49.78,16.64,16.64,0,0,1,.64,1.66,34.31,34.31,0,0,0,3.09,7A11.33,11.33,0,0,0,93.77,86,14.6,14.6,0,0,0,98,87.44a28.58,28.58,0,0,0,6.74.44,16.5,16.5,0,0,0,4-.62,6.57,6.57,0,0,0,3.42-2.19,9.81,9.81,0,0,0,1.35-2.39,34.68,34.68,0,0,0,1.64-5.56q.31-1.39.65-2.77c.12-.48.26-1,.4-1.43a3.76,3.76,0,0,1,.52-1.29,2.3,2.3,0,0,1,1-.94.54.54,0,0,0,.36-.41,2.2,2.2,0,0,0,.07-.46c0-.68,0-1.36,0-2,0-.49-.07-1-.1-1.46M51.56,68.48c-.74,0-1.33-.15-1.33-.33s.6-.33,1.33-.33,1.33.15,1.33.33-.6.33-1.33.33m25.76,7.2a20.24,20.24,0,0,1-2.27,5.61,11.71,11.71,0,0,1-2,2.63,8.36,8.36,0,0,1-3.77,2,21.43,21.43,0,0,1-8.68.5,17.36,17.36,0,0,1-1.7-.38,4.54,4.54,0,0,1-2.71-2,10.82,10.82,0,0,1-1.5-3.6,37.84,37.84,0,0,1-.79-5.08,13.33,13.33,0,0,1,0-3c.06-.5.1-1,.21-1.49a4.14,4.14,0,0,1,3.19-3.28,27.71,27.71,0,0,1,4.78-.78c1.19-.1,2.4-.15,3.17-.19a33.93,33.93,0,0,1,7.34.73,10.8,10.8,0,0,1,2.72.86,7.33,7.33,0,0,1,1.19.79,3.08,3.08,0,0,1,1,1.94,11.79,11.79,0,0,1-.25,4.68M113,74.94a21.14,21.14,0,0,1-1.32,7,6.58,6.58,0,0,1-1.52,2.44,6.2,6.2,0,0,1-2.81,1.45,15.63,15.63,0,0,1-4,.45,27.59,27.59,0,0,1-6-.66,8.15,8.15,0,0,1-4.79-3,16.6,16.6,0,0,1-3.2-6.76,14,14,0,0,1-.46-3.49A9.36,9.36,0,0,1,89,70.83a3.28,3.28,0,0,1,2.16-2.54,20,20,0,0,1,3.61-1,31.64,31.64,0,0,1,4.14-.56c1.09-.07,2.18-.1,2.91-.13a34.75,34.75,0,0,1,7.94,1.06,8.53,8.53,0,0,1,1.32.54,2,2,0,0,1,.93.91c.22.45.45.9.63,1.36a5.32,5.32,0,0,1,.28,1.71c0,.92.08,1.84.06,2.76m2.3-6.47c-.74,0-1.33-.15-1.33-.33s.6-.33,1.33-.33,1.33.15,1.33.33-.6.33-1.33.33"/></g></g></g></g></svg>