<svg xmlns="http://www.w3.org/2000/svg" xmlns:xlink="http://www.w3.org/1999/xlink" viewBox="0 0 170 170"><defs><style>.cls-1{fill:none;}.cls-2{fill:#61bbc4;}.cls-3{clip-path:url(#clip-path);}.cls-4{fill:#a95d21;}.cls-5{fill:#f5c799;}.cls-6{fill:#26232c;}.cls-7{fill:#fff;}</style><clipPath id="clip-path"><circle class="cls-1" cx="85" cy="85" r="85"/></clipPath></defs><title>Asset 9</title><g id="Layer_2" data-name="Layer 2"><g id="Objects"><g id="avatar_animals" data-name="avatar animals"><circle class="cls-2" cx="85" cy="85" r="85"/><g class="cls-3"><path class="cls-4" d="M85,116.45C56.84,116.45,34,140.42,34,170H135.87C135.87,140.42,113.08,116.45,85,116.45Z"/><circle class="cls-4" cx="137.72" cy="69.9" r="17.16"/><circle class="cls-5" cx="137.72" cy="69.9" r="11.18"/><circle class="cls-4" cx="32.28" cy="69.9" r="17.16"/><circle class="cls-5" cx="32.28" cy="69.9" r="11.18"/><circle class="cls-4" cx="84.96" cy="78.18" r="48.31"/><path class="cls-5" d="M127.57,74.6A21.65,21.65,0,0,0,85,69.23a21.65,21.65,0,1,0-21,27v11.18a21.66,21.66,0,0,0,43.32,0V96.19A21.64,21.64,0,0,0,127.57,74.6Z"/><circle class="cls-6" cx="72.52" cy="76.7" r="4.48"/><circle class="cls-6" cx="97.39" cy="76.7" r="4.48"/><circle class="cls-7" cx="74.03" cy="75.2" r="1.49"/><circle class="cls-7" cx="98.89" cy="75.2" r="1.49"/><path class="cls-4" d="M89.5,91.67c4.41,0,5.8,2.84,3.07,6.31l-1.74,2.22a6,6,0,0,1-9.91,0L79.17,98c-2.73-3.47-1.34-6.31,3.07-6.31Z"/><circle class="cls-6" cx="82.59" cy="96.68" r="2.37"/><circle class="cls-6" cx="89.67" cy="96.68" r="2.37"/><path class="cls-6" d="M85.77,103.64a9.5,9.5,0,0,0-7.65,0c-3.73,1.87-7.18,5.13-9.33.65,0,0-.09,7,8.49,6.16S86.15,104.76,85.77,103.64Z"/><path class="cls-6" d="M86,103.64a9.5,9.5,0,0,1,7.65,0c3.73,1.87,7.18,5.13,9.33.65,0,0,.09,7-8.49,6.16S85.59,104.76,86,103.64Z"/><path d="M126,64.86a.49.49,0,0,0-.39-.49c-.18,0-.36-.1-.54-.12-2.56-.4-5.13-.79-7.72-1-2.07-.14-4.14-.24-6.21-.33a69.92,69.92,0,0,0-11.94.41A39.21,39.21,0,0,0,92,64.85c-1.18.38-2.34.83-3.52,1.2a11.5,11.5,0,0,1-5.64.49,28.12,28.12,0,0,1-3.4-.91A48,48,0,0,0,73.32,64a63.07,63.07,0,0,0-12-1.05,73,73,0,0,0-8.7.45c-2.28.27-4.56.58-6.85.89a12.25,12.25,0,0,0-1.43.33.52.52,0,0,0-.43.52c0,1.35-.09,2.69-.13,4a3.4,3.4,0,0,0,.08.61.44.44,0,0,0,.28.36,3,3,0,0,1,.51.26,4,4,0,0,1,1.4,2.13c.21.59.34,1.2.51,1.79.11.37.25.74.33,1.11.39,1.76.76,3.53,1.17,5.28a20.16,20.16,0,0,0,1.69,4.85,7.83,7.83,0,0,0,4,3.78,14.85,14.85,0,0,0,3.41.93,27.45,27.45,0,0,0,6.32.22,28.86,28.86,0,0,0,6.31-1.1A11.46,11.46,0,0,0,74,87.2a19.26,19.26,0,0,0,4.54-5.67,38.9,38.9,0,0,0,2.7-6.82c.21-.67.41-1.35.65-2A2.53,2.53,0,0,1,84,71a4.83,4.83,0,0,1,1,0,2.63,2.63,0,0,1,2,.86,4.38,4.38,0,0,1,.58.93,19.33,19.33,0,0,1,.76,2A40.43,40.43,0,0,0,92,83a13.38,13.38,0,0,0,5.17,5.15,17.22,17.22,0,0,0,5,1.74,33.87,33.87,0,0,0,8,.52,19.51,19.51,0,0,0,4.77-.74A7.77,7.77,0,0,0,119,87a11.58,11.58,0,0,0,1.6-2.83,41.24,41.24,0,0,0,1.94-6.57q.37-1.64.77-3.27c.14-.57.31-1.13.47-1.69a4.48,4.48,0,0,1,.61-1.52A2.75,2.75,0,0,1,125.6,70a.63.63,0,0,0,.42-.49,2.53,2.53,0,0,0,.08-.54c0-.81,0-1.61,0-2.42,0-.58-.08-1.16-.12-1.73M47.25,67.41c-.87,0-1.58-.17-1.58-.39s.7-.39,1.58-.39,1.58.17,1.58.39-.7.39-1.58.39m30.48,8.53A23.9,23.9,0,0,1,75,82.57a13.79,13.79,0,0,1-2.38,3.12,9.9,9.9,0,0,1-4.46,2.36,25.34,25.34,0,0,1-10.27.59c-.68-.1-1.35-.28-2-.45a5.38,5.38,0,0,1-3.21-2.34,12.82,12.82,0,0,1-1.77-4.26,44.78,44.78,0,0,1-.94-6,15.73,15.73,0,0,1,0-3.51c.07-.59.12-1.18.25-1.76a4.9,4.9,0,0,1,3.77-3.88,32.82,32.82,0,0,1,5.66-.93c1.42-.12,2.84-.18,3.75-.23a40.13,40.13,0,0,1,8.69.87,12.69,12.69,0,0,1,3.22,1,8.5,8.5,0,0,1,1.41.93A3.63,3.63,0,0,1,78,70.39a13.92,13.92,0,0,1-.29,5.54m42.17-.87a25,25,0,0,1-1.56,8.28,7.73,7.73,0,0,1-1.8,2.88,7.33,7.33,0,0,1-3.32,1.72,18.5,18.5,0,0,1-4.73.53,32.57,32.57,0,0,1-7.13-.78,9.64,9.64,0,0,1-5.67-3.56,19.67,19.67,0,0,1-3.79-8A16.55,16.55,0,0,1,91.34,72a11.45,11.45,0,0,1,.19-1.81,3.88,3.88,0,0,1,2.55-3A23.62,23.62,0,0,1,98.36,66a37.61,37.61,0,0,1,4.9-.67c1.29-.08,2.58-.12,3.45-.16a41.08,41.08,0,0,1,9.39,1.26,10.13,10.13,0,0,1,1.56.64,2.31,2.31,0,0,1,1.1,1.08c.26.53.53,1.06.74,1.61a6.35,6.35,0,0,1,.33,2c0,1.09.1,2.18.07,3.27m2.72-7.65c-.87,0-1.58-.17-1.58-.39s.71-.39,1.58-.39,1.58.17,1.58.39-.71.39-1.58.39"/></g></g></g></g></svg>