<svg xmlns="http://www.w3.org/2000/svg" xmlns:xlink="http://www.w3.org/1999/xlink" viewBox="0 0 170 170"><defs><style>.cls-1{fill:none;}.cls-2{fill:#6980a2;}.cls-3{clip-path:url(#clip-path);}.cls-4{fill:#fff;}.cls-5{fill:#b66916;}.cls-6{fill:#940d0a;}.cls-7{fill:#f6e9e5;}.cls-8{fill:#fbdd58;}.cls-9{fill:#191009;}.cls-10{fill:#26232c;}</style><clipPath id="clip-path"><circle class="cls-1" cx="85" cy="85" r="85"/></clipPath></defs><title>Asset 10</title><g id="Layer_2" data-name="Layer 2"><g id="Objects"><g id="avatar_animals" data-name="avatar animals"><circle class="cls-2" cx="85" cy="85" r="85"/><g class="cls-3"><path class="cls-4" d="M135,124.33A48.06,48.06,0,0,0,130.43,114a48.29,48.29,0,0,1-5-11.87,79.2,79.2,0,0,1-2.73-17.41c0-.15,0-.3,0-.46,0-.68-.07-1.35-.1-2s0-1.3,0-1.3l-.06.09a37.42,37.42,0,0,0-37.27-34.2h0A37.42,37.42,0,0,0,48,80.93l0,0s0,.11,0,.28c-.08,1-.16,2-.16,3,0,.31,0,.62,0,.93A81.12,81.12,0,0,1,45.45,101,48.8,48.8,0,0,1,40.13,114a47.49,47.49,0,0,0-4.39,9.76c-4.51,13.55-4.52,28.79-4.52,28.79A53.89,53.89,0,0,0,34.59,170H135.93a53.93,53.93,0,0,0,3.36-17.56S139.28,137.7,135,124.33Z"/><path class="cls-5" d="M141.74,137.54v0l.11.09.1.07-.2-.14"/><path class="cls-6" d="M90.09,6.08a69.7,69.7,0,0,1,3.8,13.42c.41,2,.82,3.2,1.29,5.12a40.47,40.47,0,0,1,.93,7,37.12,37.12,0,0,1-2.91,16c-2.25,5.12-5.59,9.7-10.38,12.63-.89-5.62-1.19-10-1.54-14s-.61-7.5-.75-11.36c-.08-1.94-.1-4,0-6.38a30.05,30.05,0,0,1,1.26-8.46,33.55,33.55,0,0,1,8.37-14"/><path class="cls-7" d="M100.63,68.19a16.69,16.69,0,0,0-15.34,9.66l0,0a16.7,16.7,0,0,0-15.33-9.62c-9.19,0-16.65,7.08-16.65,15.83s7.46,15.82,16.65,15.82c6.88,0,12.79,1,15.33-4.62l0,0c2.53,5.68,8.45,4.67,15.34,4.67,9.2,0,16.66-7.08,16.66-15.82S109.83,68.19,100.63,68.19Z"/><path class="cls-6" d="M78.33,97.3s-24.07,61.4-5.16,65.8S83.28,113,82.83,109.64"/><path class="cls-6" d="M92.19,97.3s24.07,61.4,5.16,65.8S87.24,113,87.69,109.64"/><path class="cls-8" d="M92.65,97.46,88.39,95.4a8.1,8.1,0,0,0-6.23,0l-4.26,2.05c-1.71.83-2.26,2.56-1.2,3.85l6.66,8.18a2.37,2.37,0,0,0,3.82,0l6.67-8.18C94.9,100,94.36,98.28,92.65,97.46Z"/><path class="cls-4" d="M65,80.64s12.4-3.59,12.12,9c0,0-12.12,4.4-12.12-9"/><circle class="cls-9" cx="71.41" cy="85.25" r="3.01"/><circle class="cls-4" cx="72.74" cy="83.86" r="0.71"/><path class="cls-4" d="M107.61,80.64s-12.4-3.59-12.12,9c0,0,12.12,4.4,12.12-9"/><circle class="cls-9" cx="100.49" cy="85.25" r="3.01"/><circle class="cls-4" cx="99.28" cy="84.36" r="0.71"/><path class="cls-10" d="M121.49,75.68a4.94,4.94,0,0,0-1.5-1.45c-1.53-1-3.84-1.46-7.08-1.46a77.29,77.29,0,0,0-8.82.7l-1.85.21c-7.62.84-11.82,2.51-13.63,5.4a6.55,6.55,0,0,0-1,3.07,6.52,6.52,0,0,0-4.72.22,6.61,6.61,0,0,0-1-3.3c-1.81-2.89-6-4.56-13.63-5.4l-1.85-.21a77.37,77.37,0,0,0-8.82-.7c-.65,0-1.26,0-1.83.06-3.46.23-5.62,1.15-6.74,2.85a5.11,5.11,0,0,0-.71,3.41,10.84,10.84,0,0,0,.89,3.17c4.4,10.14,10,15.05,17.62,15.45l1,0h0c5.14,0,11.28-1.81,13.09-6.9l0-.14a44,44,0,0,0,1.68-5.42,5.92,5.92,0,0,1,1.22-.69,4,4,0,0,1,3.36,0,4.12,4.12,0,0,1,.62.36,40.62,40.62,0,0,0,1.74,5.76l.05.14c1.81,5.09,7.95,6.9,13.09,6.9l1,0c7.62-.39,13.22-5.3,17.62-15.45a10.81,10.81,0,0,0,.88-3.12,5.11,5.11,0,0,0-.71-3.46M91.87,90l-.05-.15a30.78,30.78,0,0,1-1.76-6.14l0,0,0,0a5.06,5.06,0,0,1,.56-3.32c1.35-2.16,5.24-3.57,11.88-4.3l1.87-.22a75.57,75.57,0,0,1,8.54-.69c3.57,0,5.79.62,6.59,1.84.6.92.48,2.38-.37,4.33-4.06,9.35-8.86,13.67-15.56,14l-.85,0c-1.5,0-9.05-.26-10.85-5.32M78.65,90c-1.8,5.06-9.35,5.32-10.85,5.32l-.85,0c-6.71-.35-11.5-4.67-15.56-14-.85-2-1-3.41-.37-4.33.8-1.22,3-1.84,6.59-1.84a75.59,75.59,0,0,1,8.54.69l1.87.22c6.64.74,10.52,2.14,11.88,4.3s.19,5.61-1.2,9.53Z"/></g></g></g></g></svg>