<svg xmlns="http://www.w3.org/2000/svg" xmlns:xlink="http://www.w3.org/1999/xlink" viewBox="0 0 170 170"><defs><style>.cls-1{fill:none;}.cls-2{fill:#f9b44d;}.cls-3{clip-path:url(#clip-path);}.cls-4{fill:#191009;}.cls-5{fill:#434345;}.cls-6{fill:#3e3d42;}.cls-7{fill:#fcfcfc;}.cls-8{fill:#4e4741;}.cls-9{fill:#e3e1e2;}</style><clipPath id="clip-path"><circle class="cls-1" cx="85" cy="85" r="85"/></clipPath></defs><title>Asset 11</title><g id="Layer_2" data-name="Layer 2"><g id="Objects"><g id="avatar_animals" data-name="avatar animals"><circle class="cls-2" cx="85" cy="85" r="85"/><g class="cls-3"><path class="cls-4" d="M85,116.45c-28.12,0-50.91,24-50.91,53.56H135.91C135.91,140.42,113.12,116.45,85,116.45Z"/><polygon class="cls-5" points="62.6 120.99 85 170 109.12 122.83 124.1 126.01 110.45 140.47 118.43 143.22 85 170 59.74 149.53 65.99 143.22 50.63 127.79 62.6 120.99"/><circle class="cls-4" cx="56.26" cy="53.01" r="9.72"/><circle class="cls-4" cx="113.58" cy="53.01" r="9.72"/><circle class="cls-6" cx="111.96" cy="54.63" r="6.47"/><circle class="cls-6" cx="57.48" cy="54.63" r="6.47"/><circle class="cls-7" cx="84.93" cy="88.83" r="41.65"/><path class="cls-4" d="M82.33,87c2.94-7-3.88-15.81-12.79-14.19S50.94,93.64,56.6,99.46,78.29,96.61,82.33,87Z"/><circle class="cls-8" cx="72.03" cy="85.17" r="3.67"/><circle class="cls-9" cx="72.03" cy="85.17" r="1.79"/><path class="cls-4" d="M87.41,87c-2.94-7,3.88-15.81,12.79-14.19s18.61,20.88,12.95,26.7S91.46,96.61,87.41,87Z"/><circle class="cls-8" cx="97.72" cy="85.17" r="3.67"/><circle class="cls-9" cx="97.72" cy="85.17" r="1.79"/><path class="cls-4" d="M87.57,102.08c3.13,0,4.11,2,2.18,4.47l-1.24,1.58a4.26,4.26,0,0,1-7,0l-1.24-1.58c-1.93-2.46-1-4.47,2.17-4.47Z"/><path class="cls-4" d="M75.41,112.4A9.85,9.85,0,0,0,84.88,110c3.56,2.83,5.83,3.66,9.71,1.39A9.16,9.16,0,0,1,84.76,114C81.69,114.85,76.22,114.67,75.41,112.4Z"/><circle class="cls-5" cx="85" cy="141.85" r="2.72"/><circle class="cls-5" cx="85" cy="151.28" r="2.72"/></g></g></g></g></svg>